<svg xmlns="http://www.w3.org/2000/svg" viewBox="0 0 45 45"><g transform="translate(-893 -765)"><g transform="translate(893 765)" fill="none"><path d="M22.5,0a22.5,22.5,0,0,1,6.531,44.037A22.019,22.019,0,0,1,22.5,45a22.5,22.5,0,0,1,0-45Z" stroke="none"/><path d="M 22.5 2 C 19.73163986206055 2 17.04714012145996 2.541740417480469 14.52108955383301 3.61016845703125 C 12.0802001953125 4.642578125 9.887641906738281 6.120979309082031 8.004310607910156 8.004310607910156 C 6.120979309082031 9.887641906738281 4.642578125 12.0802001953125 3.61016845703125 14.52108955383301 C 2.541740417480469 17.04714012145996 2 19.73163986206055 2 22.5 C 2 25.26836013793945 2.541740417480469 27.95285987854004 3.61016845703125 30.47891044616699 C 4.642578125 32.9197998046875 6.120979309082031 35.11235809326172 8.004310607910156 36.99568939208984 C 9.887641906738281 38.87902069091797 12.0802001953125 40.357421875 14.52108955383301 41.38983154296875 C 17.04714012145996 42.45825958251953 19.73163986206055 43 22.5 43 C 24.56068992614746 43 26.66482925415039 42.69158935546875 28.42703056335449 42.1308708190918 C 30.54524993896484 41.45957183837891 32.52962112426758 40.47375106811523 34.32501220703125 39.20082092285156 C 36.09226226806641 37.94783020019531 37.64233016967773 36.44144058227539 38.93215179443359 34.72348785400391 C 41.59336090087891 31.17895889282227 43 26.95215034484863 43 22.5 C 43 19.73163986206055 42.45825958251953 17.04714012145996 41.38983154296875 14.52108955383301 C 40.357421875 12.0802001953125 38.87902069091797 9.887641906738281 36.99568939208984 8.004310607910156 C 35.11235809326172 6.120979309082031 32.9197998046875 4.642578125 30.47891044616699 3.61016845703125 C 27.95285987854004 2.541740417480469 25.26836013793945 2 22.5 2 M 22.5 0 C 34.92641067504883 0 45 10.07358932495117 45 22.5 C 45 32.55295944213867 38.40702056884766 41.0660514831543 29.03125 44.03741836547852 C 27.16105079650879 44.63249969482422 24.87343978881836 45 22.5 45 C 10.07358932495117 45 0 34.92641067504883 0 22.5 C 0 10.07358932495117 10.07358932495117 0 22.5 0 Z" stroke="none" fill="#fff"/></g><g transform="translate(904 781)"><path d="M750.809,3747l-.544.8,6.457,4.808H736.988v.982h19.734l-6.457,4.806.544.8,8.193-6.1Z" transform="translate(-736.988 -3747.003)" fill="none" stroke="#fff" stroke-width="1"/></g></g></svg>